<?xml version="1.0" encoding="UTF-8"?>
<svg version="1.1" xmlns="http://www.w3.org/2000/svg" width="92" height="92">
<path d="M0 0 C30.36 0 60.72 0 92 0 C92 30.36 92 60.72 92 92 C61.64 92 31.28 92 0 92 C0 61.64 0 31.28 0 0 Z " fill="#9365E4" transform="translate(0,0)"/>
<path d="M0 0 C0.19916016 1.69769531 0.19916016 1.69769531 0.40234375 3.4296875 C0.5805342 4.91148179 0.75893029 6.39325136 0.9375 7.875 C1.02451172 8.62136719 1.11152344 9.36773437 1.20117188 10.13671875 C1.63326063 14.1953231 1.63326063 14.1953231 3 18 C4.60754096 15.94005539 6.2110805 13.87719524 7.8125 11.8125 C8.26431641 11.23435547 8.71613281 10.65621094 9.18164062 10.06054688 C11.69181166 6.81747919 13.97243389 3.57686912 16 0 C19.87132028 0.57352893 22.08172796 2.48704352 25 5 C23.59601721 9.10110762 21.62912962 11.98089159 18.875 15.3125 C18.15054688 16.19550781 17.42609375 17.07851563 16.6796875 17.98828125 C16.12539063 18.65214844 15.57109375 19.31601562 15 20 C16.65044667 25.11075817 19.84588986 28.55259234 23.3671875 32.45117188 C26.28994239 35.80196335 27.87262885 38.7018975 29 43 C27.57140593 44.03325986 26.13177617 45.05127634 24.6875 46.0625 C23.88699219 46.63097656 23.08648437 47.19945312 22.26171875 47.78515625 C21.51535156 48.18605469 20.76898438 48.58695313 20 49 C16.15831697 47.71943899 15.41184973 46.10930087 13.125 42.8125 C10.2281129 38.66029515 7.26719581 34.92063497 4 31 C4 36.61 4 42.22 4 48 C1.69 48 -0.62 48 -3 48 C-5 46 -5 46 -5.5 43.9375 C-5.665 43.298125 -5.83 42.65875 -6 42 C-6.66 41.67 -7.32 41.34 -8 41 C-8 40.34 -8 39.68 -8 39 C-8.99 39 -9.98 39 -11 39 C-12.48147757 32.62964645 -13.66527427 26.28085554 -14.625 19.8125 C-14.7590625 18.94947266 -14.893125 18.08644531 -15.03125 17.19726562 C-15.69748589 12.75456 -16.1623082 8.50774145 -16 4 C-13.89748139 3.32815382 -11.79292237 2.66269032 -9.6875 2 C-8.51574219 1.62875 -7.34398437 1.2575 -6.13671875 0.875 C-3 0 -3 0 0 0 Z " fill="#FAF8FB" transform="translate(40,20)"/>
<path d="M0 0 C2.60867395 4.09934477 4.38760291 8.28677963 3.6875 13.1875 C3 15 3 15 1 17 C-1.69162425 17.22552238 -4.24669744 17.3243329 -6.9375 17.3125 C-7.66646484 17.32861328 -8.39542969 17.34472656 -9.14648438 17.36132812 C-14.44853841 17.36618794 -14.44853841 17.36618794 -16.9765625 15.6875 C-18.76484149 12.73888732 -18.39767011 10.35179089 -18 7 C-16.52352173 3.5976805 -15.42434389 1.57930405 -11.90625 0.1484375 C-7.92262128 -0.84746968 -3.82346945 -1.79927974 0 0 Z " fill="#BD9514" transform="translate(34,61)"/>
<path d="M0 0 C3.44108381 3.26461798 6.31197399 6.80869292 9.1875 10.5625 C9.63802734 11.13935547 10.08855469 11.71621094 10.55273438 12.31054688 C12.51568702 14.86209102 13.97426528 16.92279585 15 20 C14.01 20.33 13.02 20.66 12 21 C12 21.66 12 22.32 12 23 C7.05 23 2.1 23 -3 23 C-3 24.98 -3 26.96 -3 29 C-4.98 29.99 -4.98 29.99 -7 31 C-7.33 30.01 -7.66 29.02 -8 28 C-7.34 27.34 -6.68 26.68 -6 26 C-5.59952556 23.67724823 -5.2602896 21.34260643 -5 19 C-3.02 19 -1.04 19 1 19 C0.835 17.906875 0.67 16.81375 0.5 15.6875 C-0.16622112 10.46094841 -0.08701543 5.2595992 0 0 Z " fill="#8353D8" transform="translate(43,49)"/>
<path d="M0 0 C5.28 0 10.56 0 16 0 C16.33 2.64 16.66 5.28 17 8 C19.31 8.33 21.62 8.66 24 9 C23.67 10.98 23.34 12.96 23 15 C20 16 20 16 17 16 C16.773125 16.78375 16.54625 17.5675 16.3125 18.375 C15 21 15 21 12.375 22.3125 C11.59125 22.539375 10.8075 22.76625 10 23 C9.34 22.34 8.68 21.68 8 21 C8.58910156 20.31292969 9.17820312 19.62585938 9.78515625 18.91796875 C10.53667969 18.01691406 11.28820313 17.11585937 12.0625 16.1875 C13.19365234 14.84751953 13.19365234 14.84751953 14.34765625 13.48046875 C14.89292969 12.66191406 15.43820313 11.84335937 16 11 C14.84807997 7.5442399 14.08865366 6.80171463 11 5 C8.45672892 4.33314062 8.45672892 4.33314062 6 5 C4.28288757 7.44496043 4.28288757 7.44496043 3 10 C2.34 10 1.68 10 1 10 C0.67 6.7 0.34 3.4 0 0 Z " fill="#9974DE" transform="translate(48,16)"/>
<path d="M0 0 C1.75 0.8125 1.75 0.8125 3 3.375 C3.2475 4.179375 3.495 4.98375 3.75 5.8125 C-0.705 6.3075 -0.705 6.3075 -5.25 6.8125 C-5.25 7.8025 -5.25 8.7925 -5.25 9.8125 C-3.6 9.8125 -1.95 9.8125 -0.25 9.8125 C-0.25 9.1525 -0.25 8.4925 -0.25 7.8125 C0.74 8.1425 1.73 8.4725 2.75 8.8125 C2.75 9.4725 2.75 10.1325 2.75 10.8125 C3.41 11.4725 4.07 12.1325 4.75 12.8125 C3.43 12.8125 2.11 12.8125 0.75 12.8125 C0.75 12.1525 0.75 11.4925 0.75 10.8125 C-0.673125 11.0909375 -0.673125 11.0909375 -2.125 11.375 C-5.25 11.8125 -5.25 11.8125 -7.25 10.8125 C-7.58 11.8025 -7.91 12.7925 -8.25 13.8125 C-8.91 13.8125 -9.57 13.8125 -10.25 13.8125 C-10.58 11.1725 -10.91 8.5325 -11.25 5.8125 C-10.59 5.4825 -9.93 5.1525 -9.25 4.8125 C-9.91 4.1525 -10.57 3.4925 -11.25 2.8125 C-8.14692233 -1.3249369 -4.72544873 -0.39378739 0 0 Z " fill="#F5CF1A" transform="translate(30.25,61.1875)"/>
<path d="M0 0 C0.66 0 1.32 0 2 0 C0.44301719 4.90543378 -2.43323673 8.37950236 -5.625 12.3125 C-6.3984375 13.28026367 -6.3984375 13.28026367 -7.1875 14.26757812 C-8.45294182 15.8493804 -9.72574262 17.42529063 -11 19 C-13.35119399 15.47320901 -13.21443452 13.97120515 -13.125 9.8125 C-13.10695312 8.72582031 -13.08890625 7.63914062 -13.0703125 6.51953125 C-13.04710937 5.68808594 -13.02390625 4.85664063 -13 4 C-10.36 4 -7.72 4 -5 4 C-5 4.66 -5 5.32 -5 6 C-2.7456405 5.10031217 -2.7456405 5.10031217 -1.5 2.4375 C-1.005 1.633125 -0.51 0.82875 0 0 Z " fill="#916ED1" transform="translate(54,20)"/>
<path d="M0 0 C2.3125 0.125 2.3125 0.125 5 1 C7.60867395 5.09934477 9.38760291 9.28677963 8.6875 14.1875 C8 16 8 16 6 18 C3.30837575 18.22552238 0.75330256 18.3243329 -1.9375 18.3125 C-2.66646484 18.32861328 -3.39542969 18.34472656 -4.14648438 18.36132812 C-9.44247908 18.36618238 -9.44247908 18.36618238 -11.98046875 16.69921875 C-13.71802935 13.80328441 -13.35046061 11.27096567 -13 8 C-11.5 6.0625 -11.5 6.0625 -10 5 C-9.01 5.33 -8.02 5.66 -7 6 C-7.99 6.66 -8.98 7.32 -10 8 C-10.33338596 11.54187831 -10.33338596 11.54187831 -10 15 C-8.92656396 16.29688975 -8.92656396 16.29688975 -6.3828125 16.1328125 C-5.30773437 16.13023438 -4.23265625 16.12765625 -3.125 16.125 C-2.05507813 16.12757812 -0.98515625 16.13015625 0.1171875 16.1328125 C3.07019169 16.12784318 3.07019169 16.12784318 6 15 C5.68817931 13.58318366 5.37551263 12.16655349 5.0625 10.75 C4.88847656 9.96109375 4.71445312 9.1721875 4.53515625 8.359375 C4.052444 6.23121297 3.53836822 4.11467158 3 2 C1.68 2.33 0.36 2.66 -1 3 C-0.67 2.01 -0.34 1.02 0 0 Z " fill="#3B2934" transform="translate(29,60)"/>
<path d="M0 0 C2.875 0.3125 2.875 0.3125 6 1 C6.66 1.99 7.32 2.98 8 4 C7.67 4.66 7.34 5.32 7 6 C3.04 6 -0.92 6 -5 6 C-5 7.98 -5 9.96 -5 12 C-6.98 12.99 -6.98 12.99 -9 14 C-9.33 13.01 -9.66 12.02 -10 11 C-9.34 10.34 -8.68 9.68 -8 9 C-7.59952556 6.67724823 -7.2602896 4.34260643 -7 2 C-4.69 2.33 -2.38 2.66 0 3 C0 2.01 0 1.02 0 0 Z " fill="#854FE2" transform="translate(45,66)"/>
<path d="M0 0 C2.76276177 0.52268466 5.3260876 1.10869587 8 2 C8 1.34 8 0.68 8 0 C8.99 0 9.98 0 11 0 C11 0.66 11 1.32 11 2 C12.65 1.67 14.3 1.34 16 1 C16 1.99 16 2.98 16 4 C5.62642369 7.62870159 5.62642369 7.62870159 0 6 C0 4.02 0 2.04 0 0 Z " fill="#9B78DD" transform="translate(24,16)"/>
<path d="M0 0 C1.67110042 2.96178773 2.32682752 5.37071192 2.625 8.75 C2.69976562 9.54921875 2.77453125 10.3484375 2.8515625 11.171875 C2.92503906 12.07679687 2.92503906 12.07679687 3 13 C3.99 13.33 4.98 13.66 6 14 C4.37548581 14.33569297 2.75037083 14.6684796 1.125 15 C-0.23238281 15.2784375 -0.23238281 15.2784375 -1.6171875 15.5625 C-4 16 -4 16 -6 16 C-6.33 16.99 -6.66 17.98 -7 19 C-7.33 18.34 -7.66 17.68 -8 17 C-7.0625 14.375 -7.0625 14.375 -6 12 C-5.34 12 -4.68 12 -4 12 C-2.18757677 7.9811485 -0.66498383 4.38889325 0 0 Z " fill="#7751AD" transform="translate(26,46)"/>
<path d="M0 0 C5.13623978 4.95912807 5.13623978 4.95912807 7 8 C6.15250816 10.54247553 5.37334617 12.71108972 4 15 C3.01 15.33 2.02 15.66 1 16 C0.14701624 12.32612505 -0.10789471 8.9552607 -0.0625 5.1875 C-0.05347656 4.21167969 -0.04445312 3.23585937 -0.03515625 2.23046875 C-0.02355469 1.49441406 -0.01195312 0.75835937 0 0 Z " fill="#7E55C9" transform="translate(43,49)"/>
<path d="M0 0 C1.75 0.8125 1.75 0.8125 3 3.375 C3.2475 4.179375 3.495 4.98375 3.75 5.8125 C-3 5.9375 -3 5.9375 -5.25 4.8125 C-5.25 4.1525 -5.25 3.4925 -5.25 2.8125 C-7.23 3.1425 -9.21 3.4725 -11.25 3.8125 C-10.92 2.8225 -10.59 1.8325 -10.25 0.8125 C-6.96373578 -0.83063211 -3.59020207 -0.29918351 0 0 Z " fill="#E4BC15" transform="translate(30.25,61.1875)"/>
<path d="M0 0 C0 1.98 0 3.96 0 6 C1.32 6.33 2.64 6.66 4 7 C4 5.02 4 3.04 4 1 C4.33 1 4.66 1 5 1 C5 3.64 5 6.28 5 9 C1.625 9.125 1.625 9.125 -2 9 C-4.19191368 6.80808632 -4.27869352 5.88522592 -5 3 C-5.66 2.34 -6.32 1.68 -7 1 C-4.50935112 0.31292445 -2.62113708 0 0 0 Z " fill="#E6E1EF" transform="translate(39,59)"/>
<path d="M0 0 C2 1 2 1 3 2 C3.66 1.67 4.32 1.34 5 1 C4.42415568 3.38564077 3.77772405 5.66682784 3 8 C3.66 8.33 4.32 8.66 5 9 C3.35 9.33 1.7 9.66 0 10 C-1.65 8.02 -3.3 6.04 -5 4 C-4.67 3.34 -4.34 2.68 -4 2 C-2.68 2.99 -1.36 3.98 0 5 C-0.66 3.68 -1.32 2.36 -2 1 C-1.34 0.67 -0.68 0.34 0 0 Z " fill="#8E5CE2" transform="translate(67,48)"/>
<path d="M0 0 C0.99 0.33 1.98 0.66 3 1 C3 1.99 3 2.98 3 4 C2.01 4 1.02 4 0 4 C0 4.66 0 5.32 0 6 C-2.31 6 -4.62 6 -7 6 C-7.33 4.68 -7.66 3.36 -8 2 C-5.53925394 0.76962697 -3.7202437 1 -1 1 C-0.67 0.67 -0.34 0.34 0 0 Z " fill="#8450E0" transform="translate(69,66)"/>
<path d="M0 0 C0.66 0.33 1.32 0.66 2 1 C4.71262116 1.2322646 7.40773126 1.41936235 10.125 1.5625 C11.25615234 1.62727539 11.25615234 1.62727539 12.41015625 1.69335938 C14.27321888 1.7994832 16.13658524 1.90025001 18 2 C18 2.66 18 3.32 18 4 C12.06 4 6.12 4 0 4 C0 2.68 0 1.36 0 0 Z " fill="#8148E4" transform="translate(17,76)"/>
<path d="M0 0 C0.33 1.32 0.66 2.64 1 4 C0.01 4.33 -0.98 4.66 -2 5 C-2.66 4.01 -3.32 3.02 -4 2 C-4 2.66 -4 3.32 -4 4 C-5.65 4 -7.3 4 -9 4 C-9 3.01 -9 2.02 -9 1 C-5.92677456 0.08941469 -3.19902639 -0.08886184 0 0 Z " fill="#C6A51B" transform="translate(34,67)"/>
<path d="M0 0 C-0.474375 0.9075 -0.94875 1.815 -1.4375 2.75 C-2.64628821 5.26427949 -3.47993886 7.29568209 -4 10 C-6 8 -6 8 -6.1953125 6.0546875 C-6.13020833 4.03645833 -6.06510417 2.01822917 -6 0 C-3.50907189 -1.24546405 -2.58919267 -0.7767578 0 0 Z " fill="#8756DF" transform="translate(22,57)"/>
<path d="M0 0 C2.3125 0.0625 2.3125 0.0625 5 1 C6.9375 4.375 6.9375 4.375 8 8 C7.01 9.485 7.01 9.485 6 11 C3 5.375 3 5.375 3 2 C1.68 2.33 0.36 2.66 -1 3 C-0.67 2.01 -0.34 1.02 0 0 Z " fill="#6F531F" transform="translate(29,60)"/>
<path d="M0 0 C0.66 0 1.32 0 2 0 C0.6062718 4.43458973 -1.60582235 6.87378374 -5 10 C-5.66 8.35 -6.32 6.7 -7 5 C-6.34 4.67 -5.68 4.34 -5 4 C-5 4.66 -5 5.32 -5 6 C-2.7456405 5.10031217 -2.7456405 5.10031217 -1.5 2.4375 C-1.005 1.633125 -0.51 0.82875 0 0 Z " fill="#9675D1" transform="translate(54,20)"/>
<path d="M0 0 C0.99 0.33 1.98 0.66 3 1 C2.01 1.66 1.02 2.32 0 3 C-0.25003964 6.45821402 -0.25003964 6.45821402 0 10 C0 10.99 0 11.98 0 13 C-1.5 11.9375 -1.5 11.9375 -3 10 C-3.65882353 3.85098039 -3.65882353 3.85098039 -1.5 1.0625 C-1.005 0.711875 -0.51 0.36125 0 0 Z " fill="#58344A" transform="translate(19,65)"/>
<path d="M0 0 C1.5 1.25 1.5 1.25 3 3 C3 4.32 3 5.64 3 7 C6.63 7.33 10.26 7.66 14 8 C14 8.33 14 8.66 14 9 C12.04196493 9.05389087 10.08351091 9.09274217 8.125 9.125 C7.03445312 9.14820312 5.94390625 9.17140625 4.8203125 9.1953125 C2 9 2 9 0 7 C-0.125 3.375 -0.125 3.375 0 0 Z " fill="#A67E10" transform="translate(18,68)"/>
<path d="M0 0 C0.66 0.33 1.32 0.66 2 1 C2 3.97 2 6.94 2 10 C0.02 10.99 0.02 10.99 -2 12 C-2.33 11.01 -2.66 10.02 -3 9 C-2.34 8.34 -1.68 7.68 -1 7 C-0.59952556 4.67724823 -0.2602896 2.34260643 0 0 Z " fill="#7B49D3" transform="translate(38,68)"/>
<path d="M0 0 C1.5 1.375 1.5 1.375 3 3 C3 3.66 3 4.32 3 5 C1.35 5.66 -0.3 6.32 -2 7 C-2.66 6.34 -3.32 5.68 -4 5 C-2.68 3.35 -1.36 1.7 0 0 Z " fill="#A17AE2" transform="translate(60,32)"/>
<path d="M0 0 C3.0625 0.25 3.0625 0.25 6 1 C6.33 1.66 6.66 2.32 7 3 C3.625 3.625 3.625 3.625 0 4 C-0.66 3.34 -1.32 2.68 -2 2 C-1.34 1.34 -0.68 0.68 0 0 Z " fill="#9371D2" transform="translate(26,19)"/>
<path d="M0 0 C0.9075 0.78375 1.815 1.5675 2.75 2.375 C5.05190236 4.30052496 7.21577207 5.82205741 10 7 C8.35 7.33 6.7 7.66 5 8 C0 2.25 0 2.25 0 0 Z " fill="#8757D7" transform="translate(62,50)"/>
<path d="M0 0 C4.62162162 1.45945946 4.62162162 1.45945946 6.3125 3.875 C7 6 7 6 7 10 C5 9 5 9 4 6 C3.34 5.34 2.68 4.68 2 4 C1.30251417 2.68252676 0.63040043 1.35085807 0 0 Z " fill="#A283DF" transform="translate(59,18)"/>
<path d="M0 0 C0.99 0 1.98 0 3 0 C3 0.66 3 1.32 3 2 C4.32 2 5.64 2 7 2 C7 2.66 7 3.32 7 4 C5.02 4.33 3.04 4.66 1 5 C1 4.34 1 3.68 1 3 C0.34 2.67 -0.32 2.34 -1 2 C-0.67 1.34 -0.34 0.68 0 0 Z " fill="#F5D54A" transform="translate(22,64)"/>
<path d="M0 0 C1.32 0 2.64 0 4 0 C2.75023244 3.65316671 2.32901247 4.78065836 -1 7 C-0.67 4.69 -0.34 2.38 0 0 Z " fill="#8864C7" transform="translate(43,32)"/>
<path d="M0 0 C2.31 0.66 4.62 1.32 7 2 C5 4 5 4 2.375 4.125 C1.59125 4.08375 0.8075 4.0425 0 4 C0 2.68 0 1.36 0 0 Z " fill="#7D4BDA" transform="translate(17,76)"/>
</svg>
